<svg xmlns="http://www.w3.org/2000/svg" width="341.917" height="339.832" viewBox="0 0 341.917 339.832">
  <g id="Layer_1-2" opacity="0.1">
    <path id="Shape" d="M12.509,23.976V47.952H37.528V23.976H48.994L23.976,0,0,23.976Z" fill="#f49600"/>
    <path id="Shape-2" d="M17.109,23.976V47.952H42.128V23.976H54.637L29.618,0,4.6,23.976Z" transform="translate(43.352)" fill="#f49600"/>
    <path id="Shape-3" d="M21.809,23.976V47.952H46.828V23.976H59.337L34.318,0,9.3,23.976Z" transform="translate(87.646)" fill="#f49600"/>
    <path id="Shape-4" d="M26.509,23.976V47.952H51.528V23.976H64.037L39.018,0,14,23.976Z" transform="translate(131.94)" fill="#f49600"/>
    <path id="Shape-5" d="M31.209,23.976V47.952H56.227V23.976H68.737L42.676,0,18.7,23.976Z" transform="translate(176.235)" fill="#f49600"/>
    <path id="Shape-6" d="M35.909,23.976V47.952H60.928V23.976H73.437L47.376,0,23.4,23.976Z" transform="translate(220.529)" fill="#f49600"/>
    <path id="Shape-7" d="M40.609,23.976V47.952H65.628V23.976H77.094L52.076,0,28.1,23.976Z" transform="translate(264.823)" fill="#f49600"/>
    <path id="Shape-8" d="M17.109,28.676V52.652H42.128V28.676H54.637L29.618,4.7,4.6,28.676Z" transform="translate(43.352 44.294)" fill="#f49600"/>
    <path id="Shape-9" d="M21.809,28.676V52.652H46.828V28.676H59.337L34.318,4.7,9.3,28.676Z" transform="translate(87.646 44.294)" fill="#f49600"/>
    <path id="Shape-10" d="M26.509,28.676V52.652H51.528V28.676H64.037L39.018,4.7,14,28.676Z" transform="translate(131.94 44.294)" fill="#f49600"/>
    <path id="Shape-11" d="M31.209,28.676V52.652H56.227V28.676H68.737L42.676,4.7,18.7,28.676Z" transform="translate(176.235 44.294)" fill="#f49600"/>
    <path id="Shape-12" d="M35.909,28.676V52.652H60.928V28.676H73.437L47.376,4.7,23.4,28.676Z" transform="translate(220.529 44.294)" fill="#f49600"/>
    <path id="Shape-13" d="M40.609,28.676V52.652H65.628V28.676H77.094L52.076,4.7,28.1,28.676Z" transform="translate(264.823 44.294)" fill="#f49600"/>
    <path id="Shape-14" d="M21.809,34.318V57.252H46.828V34.318H59.337L34.318,9.3,9.3,34.318Z" transform="translate(87.646 87.646)" fill="#f49600"/>
    <path id="Shape-15" d="M26.509,34.318V57.252H51.528V34.318H64.037L39.018,9.3,14,34.318Z" transform="translate(131.94 87.646)" fill="#f49600"/>
    <path id="Shape-16" d="M31.209,34.318V57.252H56.227V34.318H68.737L42.676,9.3,18.7,34.318Z" transform="translate(176.235 87.646)" fill="#f49600"/>
    <path id="Shape-17" d="M35.909,34.318V57.252H60.928V34.318H73.437L47.376,9.3,23.4,34.318Z" transform="translate(220.529 87.646)" fill="#f49600"/>
    <path id="Shape-18" d="M40.609,34.318V57.252H65.628V34.318H77.094L52.076,9.3,28.1,34.318Z" transform="translate(264.823 87.646)" fill="#f49600"/>
    <path id="Shape-19" d="M26.509,37.976V61.952H51.528V37.976H64.037L39.018,14,14,37.976Z" transform="translate(131.94 131.94)" fill="#f49600"/>
    <path id="Shape-20" d="M31.209,37.976V61.952H56.227V37.976H68.737L42.676,14,18.7,37.976Z" transform="translate(176.235 131.94)" fill="#f49600"/>
    <path id="Shape-21" d="M35.909,37.976V61.952H60.928V37.976H73.437L47.376,14,23.4,37.976Z" transform="translate(220.529 131.94)" fill="#f49600"/>
    <path id="Shape-22" d="M40.609,37.976V61.952H65.628V37.976H77.094L52.076,14,28.1,37.976Z" transform="translate(264.823 131.94)" fill="#f49600"/>
    <path id="Shape-23" d="M31.209,42.676V66.652H56.227V42.676H68.737L42.676,18.7,18.7,42.676Z" transform="translate(176.235 176.235)" fill="#f49600"/>
    <path id="Shape-24" d="M35.909,42.676V66.652H60.928V42.676H73.437L47.376,18.7,23.4,42.676Z" transform="translate(220.529 176.235)" fill="#f49600"/>
    <path id="Shape-25" d="M40.609,42.676V66.652H65.628V42.676H77.094L52.076,18.7,28.1,42.676Z" transform="translate(264.823 176.235)" fill="#f49600"/>
    <path id="Shape-26" d="M35.909,48.318V72.294H60.928V48.318H73.437L47.376,23.3,23.4,48.318Z" transform="translate(220.529 219.586)" fill="#f49600"/>
    <path id="Shape-27" d="M40.609,48.318V72.294H65.628V48.318H77.094L52.076,23.3,28.1,48.318Z" transform="translate(264.823 219.586)" fill="#f49600"/>
    <path id="Shape-28" d="M40.609,51.976V75.952H65.628V51.976H77.094L52.076,28,28.1,51.976Z" transform="translate(264.823 263.881)" fill="#f49600"/>
  </g>
</svg>
