<svg id="Group_148" data-name="Group 148" xmlns="http://www.w3.org/2000/svg" xmlns:xlink="http://www.w3.org/1999/xlink" width="157.521" height="171.718" viewBox="0 0 157.521 171.718">
  <defs>
    <clipPath id="clip-path">
      <rect id="Rectangle_62" data-name="Rectangle 62" width="157.521" height="171.718" fill="none" stroke="#3f9f9b" stroke-width="5"/>
    </clipPath>
  </defs>
  <g id="Group_147" data-name="Group 147" clip-path="url(#clip-path)">
    <path id="Path_82" data-name="Path 82" d="M47.083,133.842a13.5,13.5,0,1,1-13.5-13.5v-39.5" transform="translate(5.308 21.371)" fill="none" stroke="#3f9f9b" stroke-miterlimit="10" stroke-width="5"/>
    <path id="Path_83" data-name="Path 83" d="M123.786,48.973V27.467a4.8,4.8,0,0,0-4.8-4.8H104.617V8.31a5.935,5.935,0,0,0-5.935-5.935h-71.2A5.935,5.935,0,0,0,21.544,8.31V22.672H7.169a4.8,4.8,0,0,0-4.794,4.8V79.94a4.8,4.8,0,0,0,4.794,4.8H17.631" transform="translate(0.628 0.628)" fill="none" stroke="#3f9f9b" stroke-miterlimit="10" stroke-width="5"/>
    <path id="Path_84" data-name="Path 84" d="M88.682,89.962h34.741a7.652,7.652,0,0,0,7.652-7.652V54a7.653,7.653,0,0,0-7.652-7.652H88.682" transform="translate(23.443 12.252)" fill="none" stroke="#3f9f9b" stroke-miterlimit="10" stroke-width="5"/>
    <line id="Line_11" data-name="Line 11" x2="21.155" transform="translate(122.116 69.502)" fill="none" stroke="#3f9f9b" stroke-miterlimit="10" stroke-width="5"/>
    <line id="Line_12" data-name="Line 12" x2="21.155" transform="translate(122.116 80.406)" fill="none" stroke="#3f9f9b" stroke-miterlimit="10" stroke-width="5"/>
    <line id="Line_13" data-name="Line 13" x2="21.155" transform="translate(122.116 91.31)" fill="none" stroke="#3f9f9b" stroke-miterlimit="10" stroke-width="5"/>
    <path id="Path_85" data-name="Path 85" d="M85.945,40.792v7.023H33.334V40.792H21.013V98.454H33.334V91.43H85.945v7.023H97.668V40.792Z" transform="translate(5.555 10.783)" fill="none" stroke="#3f9f9b" stroke-miterlimit="10" stroke-width="5"/>
    <line id="Line_14" data-name="Line 14" y2="21.808" transform="translate(38.889 80.406)" fill="none" stroke="#3f9f9b" stroke-miterlimit="10" stroke-width="5"/>
    <line id="Line_15" data-name="Line 15" y2="21.808" transform="translate(52.042 80.406)" fill="none" stroke="#3f9f9b" stroke-miterlimit="10" stroke-width="5"/>
    <line id="Line_16" data-name="Line 16" y2="21.808" transform="translate(65.194 80.406)" fill="none" stroke="#3f9f9b" stroke-miterlimit="10" stroke-width="5"/>
    <line id="Line_17" data-name="Line 17" y2="21.808" transform="translate(78.347 80.406)" fill="none" stroke="#3f9f9b" stroke-miterlimit="10" stroke-width="5"/>
    <line id="Line_18" data-name="Line 18" y2="21.808" transform="translate(91.5 80.406)" fill="none" stroke="#3f9f9b" stroke-miterlimit="10" stroke-width="5"/>
    <path id="Path_86" data-name="Path 86" d="M29.9,13.534a1.2,1.2,0,1,1-1.2-1.2A1.2,1.2,0,0,1,29.9,13.534Z" transform="translate(7.27 3.261)" fill="none" stroke="#3f9f9b" stroke-miterlimit="10" stroke-width="5"/>
    <path id="Path_87" data-name="Path 87" d="M73.777,13.534a1.2,1.2,0,1,1-1.2-1.2A1.2,1.2,0,0,1,73.777,13.534Z" transform="translate(18.87 3.261)" fill="none" stroke="#3f9f9b" stroke-miterlimit="10" stroke-width="5"/>
  </g>
</svg>
