<svg xmlns="http://www.w3.org/2000/svg" xmlns:xlink="http://www.w3.org/1999/xlink" width="246.812" height="118.655" viewBox="0 0 246.812 118.655">
  <defs>
    <clipPath id="clip-path-1010101">
      <rect id="Rectangle_20" data-name="Rectangle 20" width="246.812" height="118.655"/>
    </clipPath>
    <clipPath id="clip-path-1010101-20">
      <rect id="Rectangle_41" data-name="Rectangle 41" width="246.812" height="118.655" transform="translate(0)"/>
    </clipPath>
  </defs>
  <g id="Indeva" transform="translate(0.1 4.7)">
    <rect id="Rectangle_18" data-name="Rectangle 18" width="2.311" height="9.888" transform="translate(-0.1 99.059)" fill="#004996"/>
    <path id="Path_11" data-name="Path 11" d="M10.9,76.1h-1.8v5.907H8.979L5.768,76.1H3.2v9.888H5V79.439h.128L8.85,85.988H10.9Z" transform="translate(0.938 22.959)" fill="#004996"/>
    <path id="Path_12" data-name="Path 12" d="M17.42,76.1H10.1v1.926h2.44v7.962h2.311V78.026H17.42Z" transform="translate(2.898 22.959)" fill="#004996"/>
    <path id="Path_13" data-name="Path 13" d="M23.791,78.026V76.1H16.6v9.888h7.191V84.062h-4.88V81.879h3.852v-1.8H18.911V78.026Z" transform="translate(4.745 22.959)" fill="#004996"/>
    <path id="Path_14" data-name="Path 14" d="M25.411,84.062V76.1H23.1v9.888h6.292V84.062Z" transform="translate(6.592 22.959)" fill="#004996"/>
    <path id="Path_15" data-name="Path 15" d="M31.011,84.062V76.1H28.7v9.888h6.292V84.062Z" transform="translate(8.183 22.959)" fill="#004996"/>
    <rect id="Rectangle_19" data-name="Rectangle 19" width="2.311" height="9.888" transform="translate(44.203 99.059)" fill="#004996"/>
    <g id="Group_72" data-name="Group 72" transform="translate(-0.1 -4.7)">
      <g id="Group_42" data-name="Group 42" transform="translate(0 0)" clip-path-1010101="url(#clip-path-1010101)">
        <path id="Path_16" data-name="Path 16" d="M43.307,82.549a1.551,1.551,0,0,1-1.669,1.669c-1.669,0-1.926-1.8-1.926-3.082s.257-3.339,1.926-3.339a1.837,1.837,0,0,1,1.8,1.8l2.183-.257A3.685,3.685,0,0,0,41.766,76c-2.954,0-4.366,2.44-4.366,5.137,0,2.568,1.156,5.008,4.109,5.008a3.226,3.226,0,0,0,2.7-1.284l.385,1.156h1.027V80.751H41.509v1.8h1.8Z" transform="translate(10.755 27.63)" fill="#004996"/>
      </g>
      <g id="Group_43" data-name="Group 43" transform="translate(0 0)" clip-path-1010101="url(#clip-path-1010101)">
        <path id="Path_17" data-name="Path 17" d="M52.163,78.026V76.1H45.1v9.888h7.063V84.062H47.411V81.879h3.724v-1.8H47.411V78.026Z" transform="translate(12.943 27.659)" fill="#004996"/>
      </g>
      <g id="Group_44" data-name="Group 44" transform="translate(0 0)" clip-path-1010101="url(#clip-path-1010101)">
        <path id="Path_18" data-name="Path 18" d="M59.176,76.1h-1.8v5.907h0L54.04,76.1H51.6v9.888h1.8V79.439h0l3.852,6.549h1.926Z" transform="translate(14.79 27.659)" fill="#004996"/>
      </g>
      <g id="Group_45" data-name="Group 45" transform="translate(0 0)" clip-path-1010101="url(#clip-path-1010101)">
        <path id="Path_19" data-name="Path 19" d="M65.72,76.1H58.4v1.926h2.568v7.962H63.28V78.026h2.44Z" transform="translate(16.722 27.659)" fill="#004996"/>
      </g>
      <g id="Group_46" data-name="Group 46" transform="translate(0 0)" clip-path-1010101="url(#clip-path-1010101)">
        <path id="Path_20" data-name="Path 20" d="M70.611,77.926h.77a2.2,2.2,0,0,1,1.926.77,3.487,3.487,0,0,1,.77,2.183,4.221,4.221,0,0,1-.514,2.183c-.514.9-1.156,1.027-2.183,1.027h-.77Zm-2.311-1.8v9.888h3.21a4.317,4.317,0,0,0,3.6-1.413,5.383,5.383,0,0,0,1.284-3.6,5.437,5.437,0,0,0-1.541-3.852A4.832,4.832,0,0,0,71.125,76H68.3Z" transform="translate(19.535 27.63)" fill="#004996"/>
      </g>
      <g id="Group_47" data-name="Group 47" transform="translate(0 0)" clip-path-1010101="url(#clip-path-1010101)">
        <path id="Path_21" data-name="Path 21" d="M82.763,78.026V76.1H75.7v9.888h7.063V84.062H78.011V81.879h3.852v-1.8H78.011V78.026Z" transform="translate(21.638 27.659)" fill="#004996"/>
      </g>
      <g id="Group_48" data-name="Group 48" transform="translate(0 0)" clip-path-1010101="url(#clip-path-1010101)">
        <path id="Path_22" data-name="Path 22" d="M90.075,76.1H88.149l-2.055,7.063L84.04,76.1H81.6l2.954,9.888h2.568Z" transform="translate(23.314 27.659)" fill="#004996"/>
      </g>
      <g id="Group_49" data-name="Group 49" transform="translate(0 0)" clip-path-1010101="url(#clip-path-1010101)">
        <rect id="Rectangle_27" data-name="Rectangle 27" width="2.311" height="9.888" transform="translate(114.417 103.759)" fill="#004996"/>
      </g>
      <g id="Group_50" data-name="Group 50" transform="translate(0 0)" clip-path-1010101="url(#clip-path-1010101)">
        <path id="Path_23" data-name="Path 23" d="M100.375,79.852C100.118,77.413,98.834,76,96.394,76c-2.954,0-4.494,2.311-4.494,5.137,0,2.7,1.413,5.137,4.366,5.137a3.793,3.793,0,0,0,4.109-3.6l-2.183-.257c-.128.9-.642,1.926-1.669,1.926-1.8,0-1.926-1.8-1.926-3.082,0-1.156.128-3.339,1.8-3.339,1.284,0,1.669,1.027,1.669,2.183Z" transform="translate(26.241 27.63)" fill="#004996"/>
      </g>
      <g id="Group_51" data-name="Group 51" transform="translate(0 0)" clip-path-1010101="url(#clip-path-1010101)">
        <path id="Path_24" data-name="Path 24" d="M106.763,78.026V76.1H99.7v9.888h7.063V84.062h-4.751V81.879h3.724v-1.8h-3.724V78.026Z" transform="translate(28.457 27.659)" fill="#004996"/>
      </g>
      <g id="Group_52" data-name="Group 52" transform="translate(0 0)" clip-path-1010101="url(#clip-path-1010101)">
        <path id="Path_25" data-name="Path 25" d="M113.3,78.311A3.634,3.634,0,0,0,109.581,76a3.951,3.951,0,0,0-2.44.77,2.789,2.789,0,0,0-1.027,2.311c0,2.183,1.8,2.7,3.467,3.082.642.128,1.8.257,1.8,1.156,0,.77-.9,1.027-1.541,1.027a1.855,1.855,0,0,1-2.055-1.413l-2.183.514c.385,1.926,2.183,2.7,3.981,2.7a4.288,4.288,0,0,0,2.825-.77,3.308,3.308,0,0,0,1.284-2.44,2.7,2.7,0,0,0-1.284-2.311,8.717,8.717,0,0,0-2.568-.9c-.514-.128-1.413-.257-1.413-1.027s.77-.9,1.413-.9a1.562,1.562,0,0,1,1.669,1.156Z" transform="translate(30.134 27.63)" fill="#004996"/>
      </g>
      <g id="Group_53" data-name="Group 53" transform="translate(0 0)" clip-path-1010101="url(#clip-path-1010101)">
        <path id="Path_26" data-name="Path 26" d="M123.263,78.026V76.1H116.2v9.888h2.311V82.135h3.724v-1.8h-3.724V78.026Z" transform="translate(33.146 27.659)" fill="#004996"/>
      </g>
      <g id="Group_54" data-name="Group 54" transform="translate(0 0)" clip-path-1010101="url(#clip-path-1010101)">
        <path id="Path_27" data-name="Path 27" d="M126.138,77.926a1.272,1.272,0,0,1,1.413,1.027,6.523,6.523,0,0,1,.385,2.183,11.239,11.239,0,0,1-.257,2.055,1.422,1.422,0,0,1-1.541,1.156c-1.669,0-1.8-1.926-1.8-3.21a5.816,5.816,0,0,1,.385-2.055c.257-.77.642-1.156,1.413-1.156m0,8.347a3.913,3.913,0,0,0,3.339-1.669,6.361,6.361,0,0,0,.9-3.467,7.264,7.264,0,0,0-1.027-3.6A3.734,3.734,0,0,0,126.138,76c-2.954,0-4.238,2.44-4.238,5.137a5.9,5.9,0,0,0,1.027,3.6,4.071,4.071,0,0,0,3.21,1.541" transform="translate(34.765 27.63)" fill="#004996"/>
      </g>
      <g id="Group_55" data-name="Group 55" transform="translate(0 0)" clip-path-1010101="url(#clip-path-1010101)">
        <path id="Path_28" data-name="Path 28" d="M132.04,77.869H133.2a6.252,6.252,0,0,1,1.541.128,1.168,1.168,0,0,1,.514,1.027,1.532,1.532,0,0,1-.642,1.156,2.54,2.54,0,0,1-1.413.257h-1.284V77.869Zm0,4.238h1.669l1.541,3.981h2.568l-1.8-4.366a2.68,2.68,0,0,0,1.669-2.568,2.643,2.643,0,0,0-1.284-2.44,4.423,4.423,0,0,0-2.568-.514H129.6v9.888h2.311V82.107Z" transform="translate(36.953 27.687)" fill="#004996"/>
      </g>
      <g id="Group_56" data-name="Group 56" transform="translate(0 0)" clip-path-1010101="url(#clip-path-1010101)">
        <path id="Path_29" data-name="Path 29" d="M148.1,76.1h-2.311v3.852h-3.082V76.1H140.4v9.888h2.311V82.007h3.082v3.981H148.1Z" transform="translate(40.022 27.659)" fill="#004996"/>
      </g>
      <g id="Group_57" data-name="Group 57" transform="translate(0 0)" clip-path-1010101="url(#clip-path-1010101)">
        <path id="Path_30" data-name="Path 30" d="M150.439,82.135l1.027-3.467,1.027,3.467Zm2.568-6.035h-2.7l-3.21,9.888h2.055l.642-2.055h3.21l.642,2.055h2.44Z" transform="translate(41.925 27.659)" fill="#004996"/>
      </g>
      <g id="Group_58" data-name="Group 58" transform="translate(0 0)" clip-path-1010101="url(#clip-path-1010101)">
        <path id="Path_31" data-name="Path 31" d="M162.576,76.1h-1.8v5.907h0L157.44,76.1H155v9.888h1.8V79.439h0l3.852,6.549h1.926Z" transform="translate(44.17 27.659)" fill="#004996"/>
      </g>
      <g id="Group_59" data-name="Group 59" transform="translate(0 0)" clip-path-1010101="url(#clip-path-1010101)">
        <path id="Path_32" data-name="Path 32" d="M164.611,77.926h.77a2.2,2.2,0,0,1,1.926.77,3.487,3.487,0,0,1,.77,2.183,4.221,4.221,0,0,1-.514,2.183c-.514.9-1.156,1.027-2.183,1.027h-.77V77.926Zm-2.311-1.8v9.888h3.21a4.317,4.317,0,0,0,3.6-1.413,5.383,5.383,0,0,0,1.284-3.6,5.437,5.437,0,0,0-1.541-3.852A4.832,4.832,0,0,0,165.125,76H162.3Z" transform="translate(46.244 27.63)" fill="#004996"/>
      </g>
      <g id="Group_60" data-name="Group 60" transform="translate(0 0)" clip-path-1010101="url(#clip-path-1010101)">
        <path id="Path_33" data-name="Path 33" d="M172.011,84.062V76.1H169.7v9.888h6.292V84.062Z" transform="translate(48.347 27.659)" fill="#004996"/>
      </g>
      <g id="Group_61" data-name="Group 61" transform="translate(0 0)" clip-path-1010101="url(#clip-path-1010101-20)">
        <rect id="Rectangle_40" data-name="Rectangle 40" width="2.311" height="9.888" transform="translate(225.367 103.759)" fill="#004996"/>
      </g>
      <g id="Group_62" data-name="Group 62" transform="translate(0 0)" clip-path-1010101="url(#clip-path-1010101)">
        <path id="Path_34" data-name="Path 34" d="M186.276,76.1h-1.8v5.907h0L181.14,76.1H178.7v9.888h1.8V79.439h0l3.852,6.549h1.926Z" transform="translate(50.904 27.659)" fill="#004996"/>
      </g>
      <g id="Group_63" data-name="Group 63" transform="translate(0 0)" clip-path-1010101="url(#clip-path-1010101)">
        <path id="Path_35" data-name="Path 35" d="M191.707,82.549a1.551,1.551,0,0,1-1.669,1.669c-1.669,0-1.926-1.8-1.926-3.082s.257-3.339,1.926-3.339a1.837,1.837,0,0,1,1.8,1.8l2.183-.257A3.685,3.685,0,0,0,190.166,76c-2.954,0-4.366,2.44-4.366,5.137,0,2.568,1.156,5.008,4.109,5.008a3.226,3.226,0,0,0,2.7-1.284l.385,1.156h1.027V80.751h-4.109v1.8h1.8Z" transform="translate(52.922 27.63)" fill="#004996"/>
      </g>
      <g id="Group_64" data-name="Group 64" transform="translate(0 0)" clip-path-1010101="url(#clip-path-1010101)">
        <path id="Path_36" data-name="Path 36" d="M72.6,26h6.421c6.678,0,9.631,2.825,11.3,5.393a20,20,0,0,1,2.825,10.787c0,8.347-3.21,16.052-14.254,16.052H72.468V26ZM57.7,71.328H78.118c22.216,0,30.049-13.483,30.049-29.407,0-6.421-1.284-12.585-5.393-18.106C95.2,12.9,83.511,12.9,76.962,12.9H57.7Z" transform="translate(16.523 9.701)" fill="#004996"/>
      </g>
      <g id="Group_65" data-name="Group 65" transform="translate(0 0)" clip-path-1010101="url(#clip-path-1010101)">
        <rect id="Rectangle_45" data-name="Rectangle 45" width="14.896" height="58.428" transform="translate(0 22.601)" fill="#004996"/>
      </g>
      <g id="Group_66" data-name="Group 66" transform="translate(0 0)" clip-path-1010101="url(#clip-path-1010101)">
        <path id="Path_37" data-name="Path 37" d="M15.4,71.328H29.782L29.4,35.886l.128-.128L51.741,71.328h12.97V12.9H50.457l.514,36.47-.128.257L28.37,12.9H15.4Z" transform="translate(4.504 9.701)" fill="#004996"/>
      </g>
      <g id="Group_67" data-name="Group 67" transform="translate(0 0)" clip-path-1010101="url(#clip-path-1010101)">
        <path id="Path_38" data-name="Path 38" d="M99.3,71.328h32.36V58.23H113.554V26H131.66V12.9H99.3Z" transform="translate(28.344 9.701)" fill="#004996"/>
      </g>
      <g id="Group_68" data-name="Group 68" transform="translate(0 0)" clip-path-1010101="url(#clip-path-1010101)">
        <path id="Path_39" data-name="Path 39" d="M184.1,16.721l11.814,35.185h15.281L191.675-1l-15.41.128-24.142,76.15H152l-11.814-36.47H124.9l19.519,53.934H159.7Z" transform="translate(35.618 5.751)" fill="#004996"/>
      </g>
      <g id="Group_69" data-name="Group 69" clip-path-1010101="url(#clip-path-1010101)">
        <rect id="Rectangle_50" data-name="Rectangle 50" width="13.098" height="13.098" transform="translate(213.296 44.56)" fill="#60a92c"/>
      </g>
      <g id="Group_70" data-name="Group 70" transform="translate(0)" clip-path-1010101="url(#clip-path-1010101)">
        <rect id="Rectangle_52" data-name="Rectangle 52" width="13.098" height="13.098" transform="translate(146.777 44.56)" fill="#60a92c"/>
      </g>
      <g id="Group_71" data-name="Group 71" transform="translate(0 0)" clip-path-1010101="url(#clip-path-1010101)">
        <path id="Path_40" data-name="Path 40" d="M186.481,7.062a3.776,3.776,0,0,1-2.825-1.156A3.984,3.984,0,0,1,182.5,3.081,3.946,3.946,0,0,1,186.481-.9,3.776,3.776,0,0,1,189.306.256a3.984,3.984,0,0,1,1.156,2.825,3.984,3.984,0,0,1-1.156,2.825,3.776,3.776,0,0,1-2.825,1.156m3.21-3.981a3.1,3.1,0,0,0-.9-2.311,3.114,3.114,0,0,0-4.623,0,3.216,3.216,0,0,0-1.027,2.311,3.216,3.216,0,0,0,1.027,2.311,3.114,3.114,0,0,0,4.623,0,3.1,3.1,0,0,0,.9-2.311m-3.981.514v1.8h-1.284V.769h2.055a2.307,2.307,0,0,1,1.413.385,1.458,1.458,0,0,1,.385,1.027,1.123,1.123,0,0,1-.77,1.156l.9,2.055h-1.284l-.77-1.926h-.642Zm0-2.055V2.7h.642a.962.962,0,0,0,.642-.128.472.472,0,0,0,.128-.385.472.472,0,0,0-.128-.385c-.128-.128-.128-.128-.257-.128H185.71Z" transform="translate(51.984 5.78)" fill="#004996"/>
      </g>
    </g>
  </g>
</svg>
