<svg id="LOGO_CraneSolutions_Tagline" xmlns="http://www.w3.org/2000/svg" width="328.7" height="55.5" viewBox="0 0 328.7 55.5">
  <g id="Group_136" data-name="Group 136">
    <path id="Shape" d="M83.6,6.4a14.629,14.629,0,0,0-1.3-.9A9.715,9.715,0,0,0,77,4.2a10,10,0,0,0,0,20,10.974,10.974,0,0,0,4-.8,12.75,12.75,0,0,0,2.5-1.5l2.4,3.3a12.122,12.122,0,0,1-1.6,1,16.354,16.354,0,0,1-7.8,1.9c-8.2,0-14.4-5.9-14.4-13.9C62.1,6.1,68.3,0,76.8,0A18.208,18.208,0,0,1,82,.8a15.3,15.3,0,0,1,4,2.1Z" fill="#1e181a"/>
    <path id="Shape_00000075136046519404806410000016626795933641530754_" d="M88.6,9.4H93v3.3a5.617,5.617,0,0,1,5.5-3.8,11.076,11.076,0,0,1,1.9.2l-1,4.3a5.84,5.84,0,0,0-1.8-.4,4.492,4.492,0,0,0-4.5,5.1v9.5H88.7L88.6,9.4Z" fill="#1e181a"/>
    <path id="Shape_00000150081642321312477620000017797890129026768548_" d="M115,9.4h4.4V27.6H115V25.1a7.142,7.142,0,0,1-6.3,3.1c-5.3,0-9.2-4.1-9.2-9.7s4-9.6,9.1-9.6A7.809,7.809,0,0,1,114,11a3.126,3.126,0,0,1,.9,1.1l.1-2.7Zm-11.1,9.2a5.652,5.652,0,0,0,5.7,6c3.3,0,5.7-2.6,5.7-6.1a5.425,5.425,0,0,0-1.6-4.2,5.988,5.988,0,0,0-4.2-1.8C106.3,12.5,103.9,15.1,103.9,18.6Z" fill="#1e181a"/>
    <path id="Shape_00000138537291222035287810000003870735710711555719_" d="M123.5,9.4h4.4v2.8a6.8,6.8,0,0,1,6.2-3.4,6.966,6.966,0,0,1,4.9,2c1.2,1.3,1.5,2.6,1.5,5.3V27.6h-4.4V17.1a12.1,12.1,0,0,0-.1-1.9,3.575,3.575,0,0,0-3.7-2.8c-2.8,0-4.4,2-4.4,5.2v10h-4.4Z" fill="#1e181a"/>
    <path id="Shape_00000026131968274786407230000013140806345563321001_" d="M148.1,20a5.442,5.442,0,0,0,5.5,4.9,7.072,7.072,0,0,0,5.6-3.3l3.5,2.1a10.416,10.416,0,0,1-9,4.6c-5.9,0-10-3.9-10-9.5a9.971,9.971,0,0,1,2.8-7.1A9.11,9.11,0,0,1,153.6,9c5.7,0,9.7,4,9.7,9.8a6.6,6.6,0,0,1-.1,1.4Zm0-3h10.5a4.691,4.691,0,0,0-1.5-3.5,4.879,4.879,0,0,0-3.6-1.3c-2.8-.1-4.9,1.7-5.4,4.8Z" fill="#1e181a"/>
    <path id="Shape_00000064339689340559098060000001878809865090468996_" d="M168.8,18.7c2.3,2.5,4.7,3.9,7.1,3.9,2.1,0,3.7-1.2,3.7-2.8a1.893,1.893,0,0,0-.9-1.6,26.71,26.71,0,0,0-3.6-1.4c-2.8-.9-3.7-1.3-4.9-2.2A7.21,7.21,0,0,1,167.5,9c0-5.1,4.4-8.8,10.4-8.8a12.652,12.652,0,0,1,8.5,3l-2.9,5c-2-1.6-3.7-2.5-5.5-2.5s-3,1-3,2.3a2.088,2.088,0,0,0,.8,1.6c.6.5,1.1.7,3.5,1.4a14.971,14.971,0,0,1,5,2.2,7.074,7.074,0,0,1,2.6,5.8c0,5.5-4.3,9.3-10.6,9.3a13.582,13.582,0,0,1-9.9-4Z" fill="#1e181a"/>
    <path id="Shape_00000119807063623356769970000005612028976614031493_" d="M199.1,8.5c6.2,0,10.6,4.1,10.6,9.8s-4.4,9.9-10.6,9.9-10.6-4.1-10.6-9.9S192.9,8.5,199.1,8.5Zm-4,9.8a4,4,0,1,0,4-4A4.012,4.012,0,0,0,195.1,18.3Z" fill="#1e181a"/>
    <path id="Shape_00000138572420087644447210000009517362505186415279_" d="M212.2.5h7V27.6h-7Z" fill="#1e181a"/>
    <path id="Shape_00000154423968605119961890000007805436071641819055_" d="M241.5,19.3a13.425,13.425,0,0,1-.4,3.5c-1.1,3.3-4.7,5.4-9.3,5.4a10.835,10.835,0,0,1-6.9-2.1c-2-1.5-2.7-3.2-2.7-6.8V8.9h7V20.2a2.5,2.5,0,0,0,2.6,1.8,2.792,2.792,0,0,0,2-.8c.5-.5.6-.9.6-2.3V8.9h7Z" fill="#1e181a"/>
    <path id="Shape_00000018195918146260079330000001338068066692342189_" d="M242.7,8.9h2.9V4.3h7V8.9h4.5v5.4h-4.5v5.5a7.568,7.568,0,0,0,.1,1.5,2.429,2.429,0,0,0,2.6,1.7,5.079,5.079,0,0,0,1.7-.3l.9,4.4a12.882,12.882,0,0,1-5.1,1,7.627,7.627,0,0,1-5.4-1.9c-1.3-1.2-1.6-2.3-1.6-4.9V14.4h-2.9Z" fill="#1e181a"/>
    <path id="Shape_00000071534099661472260250000016665503632951629487_" d="M262.3.6c2.2,0,4.1,1.5,4.1,3.2s-1.9,3.3-4.1,3.3-4.1-1.5-4.1-3.3S260,.6,262.3.6Zm-3.5,8.3h7V27.6h-7Z" fill="#1e181a"/>
    <path id="Shape_00000141454764048026817040000008858427085840411825_" d="M278.7,8.5c6.2,0,10.6,4.1,10.6,9.8s-4.4,9.9-10.6,9.9-10.6-4.1-10.6-9.9S272.5,8.5,278.7,8.5Zm-4,9.8a4,4,0,1,0,4-4A4.012,4.012,0,0,0,274.7,18.3Z" fill="#1e181a"/>
    <path id="Shape_00000033348160911171353050000001934830201783200907_" d="M291.8,8.9h7v2.6c.1-.2.3-.4.4-.6a6.86,6.86,0,0,1,5.6-2.5,6.023,6.023,0,0,1,5,2.2c.9,1.1,1.1,2.3,1.1,5v12h-7V17.5a7.568,7.568,0,0,0-.1-1.5,2.208,2.208,0,0,0-2.3-2c-1.9,0-2.8,1.3-2.8,4v9.7h-7Z" fill="#1e181a"/>
    <path id="Shape_00000118364386164499852510000000368484732849352839_" d="M315,21a6.355,6.355,0,0,0,4.6,2.4c1.3,0,2.1-.6,2.1-1.5a1.2,1.2,0,0,0-.7-1,9.037,9.037,0,0,0-2.1-.8,18.155,18.155,0,0,1-3-1.1,4.815,4.815,0,0,1-2.3-4.2c0-3.7,3.3-6.3,7.9-6.3a10.118,10.118,0,0,1,6.7,2.1L326,14.7a6.225,6.225,0,0,0-3.6-1.6c-1.2,0-2,.5-2,1.3a.96.96,0,0,0,.7.9,8.64,8.64,0,0,0,2.1.7,12.129,12.129,0,0,1,3.2,1.1,4.981,4.981,0,0,1,2.3,4.3c0,4-3.4,6.7-8.4,6.7a10.219,10.219,0,0,1-7.7-2.9Z" fill="#1e181a"/>
  </g>
  <g id="Group_137" data-name="Group 137">
    <path id="Shape_00000113347905725249274530000006724687722610443143_" d="M1.2,2.3V4.6H3.6V2.3H4.8L2.4,0,0,2.3Z" fill="#f49600"/>
    <path id="Shape_00000013911017028971181640000001172817184642059908_" d="M5.9,2.3V4.6H8.3V2.3H9.5L7,0,4.7,2.3Z" fill="#f49600"/>
    <path id="Shape_00000105387446414547716030000017841006181157236906_" d="M10.6,2.3V4.6H13V2.3h1.1L11.7,0,9.4,2.3Z" fill="#f49600"/>
    <path id="Shape_00000078747984534711776870000012438244921108723073_" d="M15.3,2.3V4.6h2.4V2.3h1.1L16.4,0,14.1,2.3Z" fill="#f49600"/>
    <path id="Shape_00000080928460922712020600000002300477795045113756_" d="M20,2.3V4.6h2.4V2.3h1.1L21.1,0,18.8,2.3Z" fill="#f49600"/>
    <path id="Shape_00000026141333297565238150000008865624734504745396_" d="M24.6,2.3V4.6H27V2.3h1.2L25.8,0,23.4,2.3Z" fill="#f49600"/>
    <path id="Shape_00000080204555229005012390000000915641921987655334_" d="M29.3,2.3V4.6h2.4V2.3h1.2L30.5,0,28.1,2.3Z" fill="#f49600"/>
    <path id="Shape_00000074401070593039345910000018055025733439580346_" d="M34,2.3V4.6h2.4V2.3h1.2L35.2,0,32.8,2.3Z" fill="#f49600"/>
    <path id="Shape_00000144303220762368599110000011824638905261672326_" d="M38.7,2.3V4.6h2.4V2.3h1.2L39.8,0,37.5,2.3Z" fill="#f49600"/>
    <path id="Shape_00000074412839103782317760000017071012428936607398_" d="M43.4,2.3V4.6h2.4V2.3H47L44.5,0,42.2,2.3Z" fill="#f49600"/>
    <path id="Shape_00000008137454623416640230000016156743529063103393_" d="M48.1,2.3V4.6h2.4V2.3h1.1L49.2,0,46.9,2.3Z" fill="#f49600"/>
    <path id="Shape_00000082332702250869003170000001012483289643498635_" d="M1.2,7V9.3H3.6V7H4.8L2.4,4.7,0,7Z" fill="#f49600"/>
    <path id="Shape_00000160881623725385508450000004651673658462972810_" d="M5.9,7V9.3H8.3V7H9.5L7,4.7,4.7,7Z" fill="#f49600"/>
    <path id="Shape_00000080887790983795303640000004017360494469323933_" d="M10.6,7V9.3H13V7h1.1L11.7,4.7,9.4,7Z" fill="#f49600"/>
    <path id="Shape_00000018206763266158761780000006502093890870656390_" d="M15.3,7V9.3h2.4V7h1.1L16.4,4.7,14.1,7Z" fill="#f49600"/>
    <path id="Shape_00000137853003012233414460000003147270093943486125_" d="M20,7V9.3h2.4V7h1.1L21.1,4.7,18.8,7Z" fill="#f49600"/>
    <path id="Shape_00000134220481314376270200000017402489581610901122_" d="M24.6,7V9.3H27V7h1.2L25.8,4.7,23.4,7Z" fill="#f49600"/>
    <path id="Shape_00000052825868103395792650000015324610061621443984_" d="M29.3,7V9.3h2.4V7h1.2L30.5,4.7,28.1,7Z" fill="#f49600"/>
    <path id="Shape_00000126299382627777405770000004746908978496601223_" d="M34,7V9.3h2.4V7h1.2L35.2,4.7,32.8,7Z" fill="#f49600"/>
    <path id="Shape_00000064349709824612276110000001839812025917675654_" d="M38.7,7V9.3h2.4V7h1.2L39.8,4.7,37.5,7Z" fill="#f49600"/>
    <path id="Shape_00000064351627894171795650000011618430059569807519_" d="M43.4,7V9.3h2.4V7H47L44.5,4.7,42.2,7Z" fill="#f49600"/>
    <path id="Shape_00000070828649566383036440000005626942701788889472_" d="M48.1,7V9.3h2.4V7h1.1L49.2,4.7,46.9,7Z" fill="#f49600"/>
    <path id="Shape_00000164505660684676501040000012631392587060509579_" d="M1.2,11.7v2.2H3.6V11.7H4.8L2.4,9.3,0,11.7Z" fill="#f49600"/>
    <path id="Shape_00000130612642477175671840000015601401108705372839_" d="M5.9,11.7v2.2H8.3V11.7H9.5L7,9.3,4.7,11.7Z" fill="#f49600"/>
    <path id="Shape_00000097474757177565769700000001450248191169847936_" d="M10.6,11.7v2.2H13V11.7h1.1L11.7,9.3,9.4,11.7Z" fill="#f49600"/>
    <path id="Shape_00000152974150405279039910000012691857721720914357_" d="M15.3,11.7v2.2h2.4V11.7h1.1L16.4,9.3l-2.3,2.4Z" fill="#f49600"/>
    <path id="Shape_00000151519389747649689270000013749424375257540016_" d="M20,11.7v2.2h2.4V11.7h1.1L21.1,9.3l-2.3,2.4Z" fill="#f49600"/>
    <path id="Shape_00000014606844343288842520000001388463299590779815_" d="M29.3,11.7v2.2h2.4V11.7h1.2L30.5,9.3l-2.4,2.4Z" fill="#f49600"/>
    <path id="Shape_00000113311802132708353340000003576472373105179295_" d="M34,11.7v2.2h2.4V11.7h1.2L35.2,9.3l-2.4,2.4Z" fill="#f49600"/>
    <path id="Shape_00000031180423539736870210000007618523080677228969_" d="M38.7,11.7v2.2h2.4V11.7h1.2L39.8,9.3l-2.3,2.4Z" fill="#f49600"/>
    <path id="Shape_00000149369629211016998420000003429139067547713699_" d="M43.4,11.7v2.2h2.4V11.7H47L44.5,9.3l-2.3,2.4Z" fill="#f49600"/>
    <path id="Shape_00000035492145792259512400000006792438802751875480_" d="M48.1,11.7v2.2h2.4V11.7h1.1L49.2,9.3l-2.3,2.4Z" fill="#f49600"/>
    <path id="Shape_00000035501356437613806700000008913489583532487088_" d="M1.2,16.3v2.3H3.6V16.3H4.8L2.4,14,0,16.3Z" fill="#f49600"/>
    <path id="Shape_00000137095969875977684840000004076202497385873568_" d="M5.9,16.3v2.3H8.3V16.3H9.5L7,14,4.7,16.3Z" fill="#f49600"/>
    <path id="Shape_00000034080428354982743480000004628945119790483584_" d="M10.6,16.3v2.3H13V16.3h1.1L11.7,14,9.4,16.3Z" fill="#f49600"/>
    <path id="Shape_00000012444478725427021000000005484291133708489916_" d="M15.3,16.3v2.3h2.4V16.3h1.1L16.4,14l-2.3,2.3Z" fill="#f49600"/>
    <path id="Shape_00000147941076720772950040000003790587726662766503_" d="M20,16.3v2.3h2.4V16.3h1.1L21.1,14l-2.3,2.3Z" fill="#f49600"/>
    <path id="Shape_00000075885536773958514460000011368951219685993114_" d="M34,16.3v2.3h2.4V16.3h1.2L35.2,14l-2.4,2.3Z" fill="#f49600"/>
    <path id="Shape_00000085246898055359785800000013633230522290401967_" d="M38.7,16.3v2.3h2.4V16.3h1.2L39.8,14l-2.3,2.3Z" fill="#f49600"/>
    <path id="Shape_00000127753251588880643280000001737162594605429168_" d="M43.4,16.3v2.3h2.4V16.3H47L44.5,14l-2.3,2.3Z" fill="#f49600"/>
    <path id="Shape_00000079459084221940724730000000174122260281361565_" d="M48.1,16.3v2.3h2.4V16.3h1.1L49.2,14l-2.3,2.3Z" fill="#f49600"/>
    <path id="Shape_00000166670510958179215160000018063744395695745423_" d="M38.7,21v2.3h2.4V21h1.2l-2.5-2.3L37.5,21Z" fill="#f49600"/>
    <path id="Shape_00000155855253135347506330000001199487777988343443_" d="M43.4,21v2.3h2.4V21H47l-2.5-2.3L42.2,21Z" fill="#f49600"/>
    <path id="Shape_00000150079573281496816870000015250921805024257165_" d="M48.1,21v2.3h2.4V21h1.1l-2.4-2.3L46.9,21Z" fill="#f49600"/>
    <path id="Shape_00000113354739268250782800000007525088718791269307_" d="M43.4,25.7V28h2.4V25.7H47l-2.5-2.4-2.3,2.4Z" fill="#f49600"/>
    <path id="Shape_00000050634416949605868450000009586618904639358593_" d="M48.1,25.7V28h2.4V25.7h1.1l-2.4-2.4-2.3,2.4Z" fill="#f49600"/>
    <path id="Shape_00000127044987391598297370000013209656830314991765_" d="M38.7,30.3v2.3h2.4V30.3h1.2L39.8,28l-2.3,2.3Z" fill="#f49600"/>
    <path id="Shape_00000138567541977393511250000005329883821236644496_" d="M43.4,30.3v2.3h2.4V30.3H47L44.5,28l-2.3,2.3Z" fill="#f49600"/>
    <path id="Shape_00000001654231867141762560000007156490606125298831_" d="M48.1,30.3v2.3h2.4V30.3h1.1L49.2,28l-2.3,2.3Z" fill="#f49600"/>
    <path id="Shape_00000160886043765630780300000004912823013630508176_" d="M1.2,35v2.3H3.6V35H4.8L2.4,32.7,0,35Z" fill="#f49600"/>
    <path id="Shape_00000135670726683456797380000002858867706198447528_" d="M5.9,35v2.3H8.3V35H9.5L7,32.7,4.7,35Z" fill="#f49600"/>
    <path id="Shape_00000150798048689854682200000017140370891894873730_" d="M10.6,35v2.3H13V35h1.1l-2.4-2.3L9.4,35Z" fill="#f49600"/>
    <path id="Shape_00000091715648172604556290000018015939801363936926_" d="M15.3,35v2.3h2.4V35h1.1l-2.4-2.3L14.1,35Z" fill="#f49600"/>
    <path id="Shape_00000106834981697389520700000010878513004385789375_" d="M20,35v2.3h2.4V35h1.1l-2.4-2.3L18.8,35Z" fill="#f49600"/>
    <path id="Shape_00000156560400121103547070000006194838553328714939_" d="M34,35v2.3h2.4V35h1.2l-2.4-2.3L32.8,35Z" fill="#f49600"/>
    <path id="Shape_00000049938539340546656430000014081262249207760277_" d="M38.7,35v2.3h2.4V35h1.2l-2.5-2.3L37.5,35Z" fill="#f49600"/>
    <path id="Shape_00000033355681299653867340000015899308536810143149_" d="M43.4,35v2.3h2.4V35H47l-2.5-2.3L42.2,35Z" fill="#f49600"/>
    <path id="Shape_00000000913589709084253110000017207361964537264786_" d="M48.1,35v2.3h2.4V35h1.1l-2.4-2.3L46.9,35Z" fill="#f49600"/>
    <path id="Shape_00000052816907276839730620000014048341653740148109_" d="M1.2,39.7V42H3.6V39.7H4.8L2.4,37.3,0,39.7Z" fill="#f49600"/>
    <path id="Shape_00000095327179566258129100000010797054481187325603_" d="M5.9,39.7V42H8.3V39.7H9.5L7,37.3,4.7,39.7Z" fill="#f49600"/>
    <path id="Shape_00000053540958454140519760000011499098182687873214_" d="M10.6,39.7V42H13V39.7h1.1l-2.4-2.4L9.4,39.7Z" fill="#f49600"/>
    <path id="Shape_00000088851623179958900620000001230455777535548343_" d="M15.3,39.7V42h2.4V39.7h1.1l-2.4-2.4-2.3,2.4Z" fill="#f49600"/>
    <path id="Shape_00000079457184567094932110000007461000126433499567_" d="M20,39.7V42h2.4V39.7h1.1l-2.4-2.4-2.3,2.4Z" fill="#f49600"/>
    <path id="Shape_00000150782480739106680890000006757464531084240562_" d="M24.6,11.7v2.2H27V11.7h1.2L25.8,9.3l-2.4,2.4Z" fill="#fff"/>
    <path id="Shape_00000080184461284295080080000002732197701530685569_" d="M24.6,16.3v2.3H27V16.3h1.2L25.8,14l-2.4,2.3Z" fill="#fff"/>
    <path id="Shape_00000154396222965519659420000002504050273661908613_" d="M29.3,16.3v2.3h2.4V16.3h1.2L30.5,14l-2.4,2.3Z" fill="#fff"/>
    <path id="Shape_00000129886674520580565540000008892378190091615399_" d="M1.2,21v2.3H3.6V21H4.8L2.4,18.7,0,21Z" fill="#fff"/>
    <path id="Shape_00000091002564797366512850000004157427331358450346_" d="M5.9,21v2.3H8.3V21H9.5L7,18.7,4.7,21Z" fill="#fff"/>
    <path id="Shape_00000101094068681854705450000014749762443706131615_" d="M10.6,21v2.3H13V21h1.1l-2.4-2.3L9.4,21Z" fill="#fff"/>
    <path id="Shape_00000183963247364612478450000009230350136839834498_" d="M15.3,21v2.3h2.4V21h1.1l-2.4-2.3L14.1,21Z" fill="#fff"/>
    <path id="Shape_00000120518368146495485750000005325783597388495291_" d="M20,21v2.3h2.4V21h1.1l-2.4-2.3L18.8,21Z" fill="#fff"/>
    <path id="Shape_00000026147568127342477650000011771817897046481580_" d="M24.6,21v2.3H27V21h1.2l-2.4-2.3L23.4,21Z" fill="#fff"/>
    <path id="Shape_00000065780673764509242110000013167395278436310182_" d="M29.3,21v2.3h2.4V21h1.2l-2.4-2.3L28.1,21Z" fill="#fff"/>
    <path id="Shape_00000030473749674550108910000012050231638664951972_" d="M34,21v2.3h2.4V21h1.2l-2.4-2.3L32.8,21Z" fill="#fff"/>
    <path id="Shape_00000013175175930965839790000013147001381550621589_" d="M1.2,25.7V28H3.6V25.7H4.8L2.4,23.3,0,25.7Z" fill="#fff"/>
    <path id="Shape_00000163758303173817924180000009516318480487253951_" d="M5.9,25.7V28H8.3V25.7H9.5L7,23.3,4.7,25.7Z" fill="#fff"/>
    <path id="Shape_00000173137954426685007240000004119365998983315888_" d="M10.6,25.7V28H13V25.7h1.1l-2.4-2.4L9.4,25.7Z" fill="#fff"/>
    <path id="Shape_00000075878291201627547070000009216957957177187260_" d="M15.3,25.7V28h2.4V25.7h1.1l-2.4-2.4-2.3,2.4Z" fill="#fff"/>
    <path id="Shape_00000088132621503824153460000014504577730035626166_" d="M20,25.7V28h2.4V25.7h1.1l-2.4-2.4-2.3,2.4Z" fill="#fff"/>
    <path id="Shape_00000065784329452537284790000002253105386731412397_" d="M24.6,25.7V28H27V25.7h1.2l-2.4-2.4-2.4,2.4Z" fill="#fff"/>
    <path id="Shape_00000075129254605762358010000014150677584112191911_" d="M29.3,25.7V28h2.4V25.7h1.2l-2.4-2.4-2.4,2.4Z" fill="#fff"/>
    <path id="Shape_00000132053957480898709270000010701681882646464136_" d="M34,25.7V28h2.4V25.7h1.2l-2.4-2.4-2.4,2.4Z" fill="#fff"/>
    <path id="Shape_00000005258624423112950920000010139814624855456688_" d="M38.7,25.7V28h2.4V25.7h1.2l-2.5-2.4-2.3,2.4Z" fill="#fff"/>
    <path id="Shape_00000083062680361706254060000015454340450597828237_" d="M1.2,30.3v2.3H3.6V30.3H4.8L2.4,28,0,30.3Z" fill="#fff"/>
    <path id="Shape_00000129205389987290015160000012504181816120292483_" d="M5.9,30.3v2.3H8.3V30.3H9.5L7,28,4.7,30.3Z" fill="#fff"/>
    <path id="Shape_00000083058237748223256500000001872855551890338185_" d="M10.6,30.3v2.3H13V30.3h1.1L11.7,28,9.4,30.3Z" fill="#fff"/>
    <path id="Shape_00000083810189649898057180000000990554249110345406_" d="M15.3,30.3v2.3h2.4V30.3h1.1L16.4,28l-2.3,2.3Z" fill="#fff"/>
    <path id="Shape_00000155138097205076547540000007993086699568233133_" d="M20,30.3v2.3h2.4V30.3h1.1L21.1,28l-2.3,2.3Z" fill="#fff"/>
    <path id="Shape_00000011754325071381041760000009918444990008995977_" d="M24.6,30.3v2.3H27V30.3h1.2L25.8,28l-2.4,2.3Z" fill="#fff"/>
    <path id="Shape_00000111885240800604198170000011873457175106163851_" d="M29.3,30.3v2.3h2.4V30.3h1.2L30.5,28l-2.4,2.3Z" fill="#fff"/>
    <path id="Shape_00000171714870875824478870000010150496847004530363_" d="M34,30.3v2.3h2.4V30.3h1.2L35.2,28l-2.4,2.3Z" fill="#fff"/>
    <path id="Shape_00000011002927877473871170000009774950605702707863_" d="M24.6,35v2.3H27V35h1.2l-2.4-2.3L23.4,35Z" fill="#fff"/>
    <path id="Shape_00000025440564501739413680000015844483554079054511_" d="M29.3,35v2.3h2.4V35h1.2l-2.4-2.3L28.1,35Z" fill="#fff"/>
    <path id="Shape_00000160887109734665762900000006729036182643322045_" d="M24.6,39.7V42H27V39.7h1.2l-2.4-2.4-2.4,2.4Z" fill="#fff"/>
    <path id="Shape_00000167385851251086362890000000650061016419262902_" d="M29.3,39.7V42h2.4V39.7h1.2l-2.4-2.4-2.4,2.4Z" fill="#f49600"/>
    <path id="Shape_00000018949590802717199690000004416157749491316647_" d="M34,39.7V42h2.4V39.7h1.2l-2.4-2.4-2.4,2.4Z" fill="#f49600"/>
    <path id="Shape_00000002378222367582408280000003561895029408775346_" d="M38.7,39.7V42h2.4V39.7h1.2l-2.5-2.4-2.3,2.4Z" fill="#f49600"/>
    <path id="Shape_00000111889899786904071910000011678220226403378830_" d="M43.4,39.7V42h2.4V39.7H47l-2.5-2.4-2.3,2.4Z" fill="#f49600"/>
    <path id="Shape_00000172410928055143712430000003371199580006188673_" d="M48.1,39.7V42h2.4V39.7h1.1l-2.4-2.4-2.3,2.4Z" fill="#f49600"/>
    <path id="Shape_00000182503550362835736620000008461095156942577543_" d="M1.2,44.3v2.3H3.6V44.3H4.8L2.4,42,0,44.3Z" fill="#f49600"/>
    <path id="Shape_00000142876506262858373810000002387060443296102059_" d="M5.9,44.3v2.3H8.3V44.3H9.5L7,42,4.7,44.3Z" fill="#f49600"/>
    <path id="Shape_00000072276042384735974940000011824038111662434495_" d="M10.6,44.3v2.3H13V44.3h1.1L11.7,42,9.4,44.3Z" fill="#f49600"/>
    <path id="Shape_00000032618309370724722530000003604748180097724564_" d="M15.3,44.3v2.3h2.4V44.3h1.1L16.4,42l-2.3,2.3Z" fill="#f49600"/>
    <path id="Shape_00000077284943952589750910000015519187706015629440_" d="M20,44.3v2.3h2.4V44.3h1.1L21.1,42l-2.3,2.3Z" fill="#f49600"/>
    <path id="Shape_00000150086542547753734040000011152243921448567688_" d="M24.6,44.3v2.3H27V44.3h1.2L25.8,42l-2.4,2.3Z" fill="#f49600"/>
    <path id="Shape_00000113325229744649772730000013415301222692216462_" d="M29.3,44.3v2.3h2.4V44.3h1.2L30.5,42l-2.4,2.3Z" fill="#f49600"/>
    <path id="Shape_00000106137473629893232880000017882766034992710550_" d="M34,44.3v2.3h2.4V44.3h1.2L35.2,42l-2.4,2.3Z" fill="#f49600"/>
    <path id="Shape_00000166663792499175858730000012913688997599120804_" d="M38.7,44.3v2.3h2.4V44.3h1.2L39.8,42l-2.3,2.3Z" fill="#f49600"/>
    <path id="Shape_00000152978233094588125310000002550927422835111811_" d="M43.4,44.3v2.3h2.4V44.3H47L44.5,42l-2.3,2.3Z" fill="#f49600"/>
    <path id="Shape_00000035520503709291412950000002316567923652031393_" d="M48.1,44.3v2.3h2.4V44.3h1.1L49.2,42l-2.3,2.3Z" fill="#f49600"/>
    <path id="Shape_00000144310268321112733740000008651368649303984318_" d="M1.2,49v2.3H3.6V49H4.8L2.4,46.7,0,49Z" fill="#f49600"/>
    <path id="Shape_00000152258411510413013140000013077763813393858979_" d="M5.9,49v2.3H8.3V49H9.5L7,46.7,4.7,49Z" fill="#f49600"/>
    <path id="Shape_00000067205363676915393020000014889596006366514618_" d="M10.6,49v2.3H13V49h1.1l-2.4-2.3L9.4,49Z" fill="#f49600"/>
    <path id="Shape_00000139986209679451875360000007537886302911509690_" d="M15.3,49v2.3h2.4V49h1.1l-2.4-2.3L14.1,49Z" fill="#f49600"/>
    <path id="Shape_00000020375152499523815980000005095590274692200377_" d="M20,49v2.3h2.4V49h1.1l-2.4-2.3L18.8,49Z" fill="#f49600"/>
    <path id="Shape_00000083078227655946274090000017560192481961851831_" d="M24.6,49v2.3H27V49h1.2l-2.4-2.3L23.4,49Z" fill="#f49600"/>
    <path id="Shape_00000004526922071597810520000016312677456311762335_" d="M29.3,49v2.3h2.4V49h1.2l-2.4-2.3L28.1,49Z" fill="#f49600"/>
    <path id="Shape_00000159433590368726470690000002651155207381869720_" d="M34,49v2.3h2.4V49h1.2l-2.4-2.3L32.8,49Z" fill="#f49600"/>
    <path id="Shape_00000017501250340922529020000005790643407891252616_" d="M38.7,49v2.3h2.4V49h1.2l-2.5-2.3L37.5,49Z" fill="#f49600"/>
    <path id="Shape_00000054958602806458137140000005654580477603512718_" d="M43.4,49v2.3h2.4V49H47l-2.5-2.3L42.2,49Z" fill="#f49600"/>
    <path id="Shape_00000008860094200939734550000010822328436490421928_" d="M48.1,49v2.3h2.4V49h1.1l-2.4-2.3L46.9,49Z" fill="#f49600"/>
  </g>
  <g id="Group_138" data-name="Group 138">
    <path id="Path_57" data-name="Path 57" d="M62.1,48.8l1.5-1.6a4.365,4.365,0,0,0,3.6,2.3,2.64,2.64,0,0,0,1.9-.7,2.289,2.289,0,0,0,.8-1.7,1.513,1.513,0,0,0-.7-1.4,12.5,12.5,0,0,0-2.3-1.1c-.9-.3-1.5-.6-1.8-.7l-.9-.6A3.489,3.489,0,0,1,63,40.5a4.01,4.01,0,0,1,1.3-3.1,4.79,4.79,0,0,1,3.3-1.2,4.864,4.864,0,0,1,4.3,2.3l-1.6,1.3a3.172,3.172,0,0,0-2.7-1.7,2.111,2.111,0,0,0-1.6.6,2.035,2.035,0,0,0-.6,1.5,1.656,1.656,0,0,0,.5,1.2,1.794,1.794,0,0,0,.7.5c.3.1.8.3,1.6.6a11.631,11.631,0,0,1,2.6,1.4,3.365,3.365,0,0,1,1.4,3,4.6,4.6,0,0,1-1.4,3.4,5.237,5.237,0,0,1-3.7,1.3A5.5,5.5,0,0,1,62.1,48.8Z" fill="#0059a8"/>
    <path id="Path_58" data-name="Path 58" d="M75,50.1a5.2,5.2,0,0,1-1.5-3.8,4.918,4.918,0,0,1,1.6-3.8,5.5,5.5,0,0,1,9.4,3.8A5.2,5.2,0,0,1,83,50.1a5.276,5.276,0,0,1-3.9,1.5A5.438,5.438,0,0,1,75,50.1Zm6.2-6.2a3.255,3.255,0,0,0-2.3-1,2.9,2.9,0,0,0-2.3,1,3.244,3.244,0,0,0-.9,2.4,3.407,3.407,0,0,0,.9,2.4,3.389,3.389,0,0,0,4.6,0,3.65,3.65,0,0,0,0-4.8Z" fill="#0059a8"/>
    <path id="Path_59" data-name="Path 59" d="M86.1,51.3v-15h2.3v15Z" fill="#0059a8"/>
    <path id="Path_60" data-name="Path 60" d="M99.6,41.2v5.9a8.807,8.807,0,0,1-.2,1.7,3.891,3.891,0,0,1-1.6,2,5.117,5.117,0,0,1-2.8.8,4.962,4.962,0,0,1-3.2-1.1,3.316,3.316,0,0,1-1-1.4,5.618,5.618,0,0,1-.3-2V41.2h2.3v5.7a2.787,2.787,0,0,0,.1,1,1.64,1.64,0,0,0,.7,1.1,2.116,2.116,0,0,0,1.4.4,2.352,2.352,0,0,0,1.7-.6,1.27,1.27,0,0,0,.4-.7,3.778,3.778,0,0,0,.1-1.2V41.2Z" fill="#0059a8"/>
    <path id="Path_61" data-name="Path 61" d="M100.4,43.2V41.3h1.5V38.6h2.3v2.7h2.7v1.9h-2.7v5.4a1.039,1.039,0,0,0,.4.8,1.222,1.222,0,0,0,.9.3,5.16,5.16,0,0,0,1.1-.2l.4,1.9a8.814,8.814,0,0,1-2.1.3,2.97,2.97,0,0,1-2.5-1.1,1.8,1.8,0,0,1-.4-.9,6.22,6.22,0,0,1-.1-1.6V43.3h-1.5Z" fill="#0059a8"/>
    <path id="Path_62" data-name="Path 62" d="M107.9,39.3a1.4,1.4,0,0,1,1-2.4,1.5,1.5,0,0,1,1.1.4,1.45,1.45,0,0,1,0,2,1.366,1.366,0,0,1-1.1.4A1.284,1.284,0,0,1,107.9,39.3Zm-.1,12V41.2h2.3V51.3h-2.3Z" fill="#0059a8"/>
    <path id="Path_63" data-name="Path 63" d="M113.3,50.1a5.2,5.2,0,0,1-1.5-3.8,4.918,4.918,0,0,1,1.6-3.8,5.5,5.5,0,0,1,9.4,3.8,5.2,5.2,0,0,1-1.5,3.8,5.276,5.276,0,0,1-3.9,1.5A5.438,5.438,0,0,1,113.3,50.1Zm6.2-6.2a3.255,3.255,0,0,0-2.3-1,2.9,2.9,0,0,0-2.3,1,3.244,3.244,0,0,0-.9,2.4,3.407,3.407,0,0,0,.9,2.4,3.389,3.389,0,0,0,4.6,0,3.65,3.65,0,0,0,0-4.8Z" fill="#0059a8"/>
    <path id="Path_64" data-name="Path 64" d="M124.3,51.3V41.2h2.3v1.6a3.7,3.7,0,0,1,3.2-1.9,3.467,3.467,0,0,1,2.6,1.1,2.281,2.281,0,0,1,.6,1.2,7.449,7.449,0,0,1,.2,1.8v6.4H131V45.6a2.787,2.787,0,0,0-.1-1,1.64,1.64,0,0,0-.7-1.1,2.01,2.01,0,0,0-1.3-.4,2.136,2.136,0,0,0-1.7.8,3.281,3.281,0,0,0-.6,2.1v5.5h-2.3Z" fill="#0059a8"/>
    <path id="Path_65" data-name="Path 65" d="M134.4,49.5l1.5-1.2a2.545,2.545,0,0,0,2.2,1.5,1.5,1.5,0,0,0,1.1-.4,1.086,1.086,0,0,0,.4-.9.91.91,0,0,0-.4-.8,4.25,4.25,0,0,0-1.4-.7,7.447,7.447,0,0,1-1.8-.9,2.334,2.334,0,0,1-1-2,2.7,2.7,0,0,1,1-2.2,3.656,3.656,0,0,1,2.5-.9,3.546,3.546,0,0,1,3.3,1.8L140.4,44a1.991,1.991,0,0,0-1.7-1.1,1.2,1.2,0,0,0-1.3,1.1c0,.4.3.8,1,1l.9.3c.3.1.6.3.9.4a2.837,2.837,0,0,1,1.9,2.7,3.043,3.043,0,0,1-1.1,2.4,4.139,4.139,0,0,1-2.8,1A4.684,4.684,0,0,1,134.4,49.5Z" fill="#0059a8"/>
    <path id="Path_66" data-name="Path 66" d="M148.3,43.2V41.3h1.5V38.6h2.3v2.7h2.7v1.9h-2.7v5.4a1.039,1.039,0,0,0,.4.8,1.222,1.222,0,0,0,.9.3,5.16,5.16,0,0,0,1.1-.2l.4,1.9a8.814,8.814,0,0,1-2.1.3,2.97,2.97,0,0,1-2.5-1.1,1.8,1.8,0,0,1-.4-.9,6.219,6.219,0,0,1-.1-1.6V43.3h-1.5Z" fill="#0059a8"/>
    <path id="Path_67" data-name="Path 67" d="M155.6,51.3v-15h2.3v6.2a3.76,3.76,0,0,1,3.2-1.6,3.489,3.489,0,0,1,2.8,1.2,2.22,2.22,0,0,1,.5,1.1,8.116,8.116,0,0,1,.1,1.7v6.3h-2.3V45.4a2.787,2.787,0,0,0-.1-1,2.384,2.384,0,0,0-.6-1.1,1.746,1.746,0,0,0-1.2-.4,2.271,2.271,0,0,0-1.8.9,4.064,4.064,0,0,0-.5,2.1v5.3h-2.4Z" fill="#0059a8"/>
    <path id="Path_68" data-name="Path 68" d="M174.4,42.7V41.2h2.3V51.3h-2.3V49.9a3.779,3.779,0,0,1-3.3,1.7,4.539,4.539,0,0,1-3.5-1.5,5.857,5.857,0,0,1,0-7.6A4.478,4.478,0,0,1,171,41a4.357,4.357,0,0,1,2.9,1.1C174.1,42.2,174.2,42.4,174.4,42.7Zm-2.9.2a2.643,2.643,0,0,0-2.1,1,3.188,3.188,0,0,0-.8,2.4,3.244,3.244,0,0,0,.9,2.4,2.878,2.878,0,0,0,2.1.9,2.393,2.393,0,0,0,2.1-1,3.188,3.188,0,0,0,.8-2.4,3.407,3.407,0,0,0-.9-2.4A2.428,2.428,0,0,0,171.5,42.9Z" fill="#0059a8"/>
    <path id="Path_69" data-name="Path 69" d="M177.6,43.2V41.3h1.5V38.6h2.3v2.7h2.7v1.9h-2.7v5.4a1.039,1.039,0,0,0,.4.8,1.222,1.222,0,0,0,.9.3,5.16,5.16,0,0,0,1.1-.2l.4,1.9a8.814,8.814,0,0,1-2.1.3,2.97,2.97,0,0,1-2.5-1.1,1.8,1.8,0,0,1-.4-.9,6.219,6.219,0,0,1-.1-1.6V43.3h-1.5Z" fill="#0059a8"/>
    <path id="Path_70" data-name="Path 70" d="M190.9,51.3V41.2h2.3v1.5a3.4,3.4,0,0,1,3-1.7,2.906,2.906,0,0,1,2.8,1.6,3.31,3.31,0,0,1,3-1.6,2.971,2.971,0,0,1,2.6,1.2,3.128,3.128,0,0,1,.5,1,7.156,7.156,0,0,1,.1,1.7v6.4H203V44.4a1.905,1.905,0,0,0-.5-1,1.5,1.5,0,0,0-1.1-.4,1.8,1.8,0,0,0-1.5.7,2.851,2.851,0,0,0-.5,1.9v5.7H197V44.4a1.6,1.6,0,0,0-.5-1,1.5,1.5,0,0,0-1.1-.4,1.579,1.579,0,0,0-1.5.7,2.883,2.883,0,0,0-.6,1.9v5.6h-2.4Z" fill="#0059a8"/>
    <path id="Path_71" data-name="Path 71" d="M215.2,42.7V41.2h2.3V51.3h-2.3V49.9a3.779,3.779,0,0,1-3.3,1.7,4.539,4.539,0,0,1-3.5-1.5,5.857,5.857,0,0,1,0-7.6,4.478,4.478,0,0,1,3.4-1.5,4.357,4.357,0,0,1,2.9,1.1A3.806,3.806,0,0,1,215.2,42.7Zm-2.9.2a2.643,2.643,0,0,0-2.1,1,3.188,3.188,0,0,0-.8,2.4,3.244,3.244,0,0,0,.9,2.4,2.878,2.878,0,0,0,2.1.9,2.393,2.393,0,0,0,2.1-1,3.188,3.188,0,0,0,.8-2.4,3.407,3.407,0,0,0-.9-2.4A2.543,2.543,0,0,0,212.3,42.9Z" fill="#0059a8"/>
    <path id="Path_72" data-name="Path 72" d="M219.8,51.3v-15h2.3v9.4l3.6-4.5h2.9l-3.9,4.7,4.4,5.3h-3l-4-5.2v5.2h-2.3Z" fill="#0059a8"/>
    <path id="Path_73" data-name="Path 73" d="M239.1,47.1h-7.9a3.477,3.477,0,0,0,1,2,2.64,2.64,0,0,0,1.9.7,3.022,3.022,0,0,0,1.6-.5A4.036,4.036,0,0,0,237,48l1.8,1.1a5.552,5.552,0,0,1-4.8,2.5,5.131,5.131,0,0,1-5.3-5.3,5.276,5.276,0,0,1,1.5-3.9,5.046,5.046,0,0,1,3.8-1.5,4.975,4.975,0,0,1,3.7,1.5,5.21,5.21,0,0,1,1.4,3.9ZM234,42.7a2.64,2.64,0,0,0-1.9.7,3.791,3.791,0,0,0-1,2h5.6a3.288,3.288,0,0,0-.8-2A2.935,2.935,0,0,0,234,42.7Z" fill="#0059a8"/>
    <path id="Path_74" data-name="Path 74" d="M245.1,41.2h2.5l2.2,5.8a4.776,4.776,0,0,1,.4,1.8,6.547,6.547,0,0,1,.5-1.8l2.2-5.8h2.5L251,52.1l-.1.2a.367.367,0,0,0-.1.3,7.758,7.758,0,0,1-1,1.9,3.253,3.253,0,0,1-2.6,1,7.772,7.772,0,0,1-1.6-.2l.4-2a3.553,3.553,0,0,0,1,.2,1.6,1.6,0,0,0,1.4-.8c.2-.4.4-1,.7-1.6Z" fill="#0059a8"/>
    <path id="Path_75" data-name="Path 75" d="M256.9,50.1a5.2,5.2,0,0,1-1.5-3.8,4.918,4.918,0,0,1,1.6-3.8,5.5,5.5,0,0,1,9.4,3.8,5.2,5.2,0,0,1-1.5,3.8,5.276,5.276,0,0,1-3.9,1.5A5.755,5.755,0,0,1,256.9,50.1Zm6.3-6.2a3.255,3.255,0,0,0-2.3-1,2.9,2.9,0,0,0-2.3,1,3.244,3.244,0,0,0-.9,2.4,3.406,3.406,0,0,0,.9,2.4,3.389,3.389,0,0,0,4.6,0,3.65,3.65,0,0,0,0-4.8Z" fill="#0059a8"/>
    <path id="Path_76" data-name="Path 76" d="M277,41.2v5.9a8.806,8.806,0,0,1-.2,1.7,3.891,3.891,0,0,1-1.6,2,5.117,5.117,0,0,1-2.8.8,4.963,4.963,0,0,1-3.2-1.1,3.316,3.316,0,0,1-1-1.4,5.618,5.618,0,0,1-.3-2V41.2h2.3v5.7a2.787,2.787,0,0,0,.1,1A1.64,1.64,0,0,0,271,49a2.116,2.116,0,0,0,1.4.4,2.352,2.352,0,0,0,1.7-.6,1.27,1.27,0,0,0,.4-.7,3.778,3.778,0,0,0,.1-1.2V41.2Z" fill="#0059a8"/>
    <path id="Path_77" data-name="Path 77" d="M284.2,49.5l1.5-1.2a2.545,2.545,0,0,0,2.2,1.5,1.5,1.5,0,0,0,1.1-.4,1.086,1.086,0,0,0,.4-.9.91.91,0,0,0-.4-.8,4.25,4.25,0,0,0-1.4-.7,7.447,7.447,0,0,1-1.8-.9,2.334,2.334,0,0,1-1-2,2.7,2.7,0,0,1,1-2.2,3.656,3.656,0,0,1,2.5-.9,3.546,3.546,0,0,1,3.3,1.8L290.2,44a1.991,1.991,0,0,0-1.7-1.1,1.222,1.222,0,0,0-.9.3.91.91,0,0,0-.4.8c0,.4.3.8,1,1l.9.3a5.937,5.937,0,0,1,.8.4,2.837,2.837,0,0,1,1.9,2.7,3.043,3.043,0,0,1-1.1,2.4,4.139,4.139,0,0,1-2.8,1A4.512,4.512,0,0,1,284.2,49.5Z" fill="#0059a8"/>
    <path id="Path_78" data-name="Path 78" d="M293.3,51.3V41.2h2.3v1.5a3.4,3.4,0,0,1,3-1.7,2.906,2.906,0,0,1,2.8,1.6,3.31,3.31,0,0,1,3-1.6,2.971,2.971,0,0,1,2.6,1.2,3.128,3.128,0,0,1,.5,1,7.156,7.156,0,0,1,.1,1.7v6.4h-2.3V44.4a1.905,1.905,0,0,0-.5-1,1.5,1.5,0,0,0-1.1-.4,1.8,1.8,0,0,0-1.5.7,2.851,2.851,0,0,0-.5,1.9v5.7h-2.3V44.4a1.6,1.6,0,0,0-.5-1,1.5,1.5,0,0,0-1.1-.4,1.579,1.579,0,0,0-1.5.7,2.883,2.883,0,0,0-.6,1.9v5.6h-2.4Z" fill="#0059a8"/>
    <path id="Path_79" data-name="Path 79" d="M310,39.3a1.4,1.4,0,0,1,1-2.4,1.5,1.5,0,0,1,1.1.4,1.45,1.45,0,0,1,0,2,1.366,1.366,0,0,1-1.1.4A1.433,1.433,0,0,1,310,39.3Zm-.1,12V41.2h2.3V51.3h-2.3Z" fill="#0059a8"/>
    <path id="Path_80" data-name="Path 80" d="M314.4,51.3v-15h2.3v15Z" fill="#0059a8"/>
    <path id="Path_81" data-name="Path 81" d="M328.7,47.1h-7.9a3.477,3.477,0,0,0,1,2,2.64,2.64,0,0,0,1.9.7,3.022,3.022,0,0,0,1.6-.5,4.036,4.036,0,0,0,1.3-1.3l1.8,1.1a5.552,5.552,0,0,1-4.8,2.5,5.131,5.131,0,0,1-5.3-5.3,5.276,5.276,0,0,1,1.5-3.9,5.046,5.046,0,0,1,3.8-1.5,4.975,4.975,0,0,1,3.7,1.5,5.21,5.21,0,0,1,1.4,3.9Zm-5.1-4.4a2.64,2.64,0,0,0-1.9.7,3.791,3.791,0,0,0-1,2h5.6a3.288,3.288,0,0,0-.8-2A2.935,2.935,0,0,0,323.6,42.7Z" fill="#0059a8"/>
  </g>
</svg>
