<svg xmlns="http://www.w3.org/2000/svg" width="252.678" height="100.499" viewBox="0 0 252.678 100.499">
  <g id="Layer_1-2" transform="translate(0 0.02)">
    <path id="Fill-1" d="M6.584,59.974c3.5,0,5.406-1.552,5.406-6.341H8.3c-.056,1.422.019,3.666-1.7,3.666-2.114,0-2.375-1.983-2.375-6.6s.281-6.6,2.375-6.6c1.122,0,1.534.9,1.534,3.292H11.8c.15-3.853-1.384-5.985-5.2-5.985C.43,41.4.43,45.926.43,50.7s0,9.3,6.172,9.3" transform="translate(0.374 36.054)" fill="#ef7300"/>
    <path id="Fill-3" d="M8.05,44.562V57.131h3.5V50.285c0-1.253.056-3.03,3.124-2.843V44.3a3.147,3.147,0,0,0-3.236,1.87h-.056V44.543H8.069" transform="translate(7.007 38.578)" fill="#ef7300"/>
    <path id="Fill-5" d="M22.379,48.518c0-2.3-.561-4.208-4.994-4.208a5.389,5.389,0,0,0-3.273.823A3.437,3.437,0,0,0,12.821,48.2h3.423c0-.991.094-1.908,1.309-1.908s1.422.767,1.422,1.833V49.1c-3.255-.056-6.434.131-6.434,4.283,0,2.188.879,4,3.311,4a3.454,3.454,0,0,0,3.273-1.927h.056l.15,1.665h3.236c-.075-.767-.168-1.571-.168-2.338V48.5Zm-3.423,2.544c0,1.365.318,4.152-1.74,4.152-1.141,0-1.291-1.1-1.291-2,0-2.245,1.291-2.095,3.03-2.17h0Z" transform="translate(10.915 38.587)" fill="#ef7300"/>
    <path id="Fill-7" d="M23.108,44.553h-3.5V57.123h3.5v-8.66c0-1.122.206-1.983,1.309-1.983s1.309.879,1.309,1.983v8.66h3.5V47.041A2.836,2.836,0,0,0,26.1,44.31a3.561,3.561,0,0,0-1.7.355,2.848,2.848,0,0,0-1.234,1.178h-.056V44.572" transform="translate(17.069 38.587)" fill="#ef7300"/>
    <path id="Fill-9" d="M36.423,51.408c.131-4.04-.393-7.108-5.106-7.108s-5.106,2.937-5.106,6.378c0,3.928.6,6.7,5.106,6.7A5.222,5.222,0,0,0,35,56.159,4.413,4.413,0,0,0,36.329,52.9H32.794c0,1.047-.243,2.245-1.5,2.245-1.534,0-1.59-2.245-1.59-3.741h6.7Zm-6.7-1.964c0-1.066-.019-2.974,1.59-2.974s1.609,1.74,1.609,2.974Z" transform="translate(22.814 38.578)" fill="#ef7300"/>
    <path id="Fill-11" d="M45.327,54.772c1.2-5.649-6.4-5.349-5.686-8.772a2.239,2.239,0,0,1,2.338-1.927c1.515,0,1.44,1.365,1.16,2.712h3.647c1.047-3.76-.411-5.406-4.059-5.406-4.564,0-6.378,2.245-6.958,5.05-1.122,5.349,6.36,5.555,5.667,8.791a2.308,2.308,0,0,1-2.319,2.039c-2.057,0-1.833-1.44-1.459-3.161H33.917c-.86,3.1-.561,5.854,4.059,5.854,2.843,0,6.36-.542,7.351-5.2" transform="translate(29.191 36.036)" fill="#183a8d"/>
    <path id="Fill-13" d="M40.56,61.779h3.666L52.718,44.44H49.351L45.61,53.287h-.056l.094-8.847H42.169l.711,12.682Z" transform="translate(35.305 38.7)" fill="#183a8d"/>
    <path id="Fill-15" d="M46.973,53.1c-.935,3.516.935,4.283,3.984,4.283s5.031-1.646,5.5-3.834c.86-4.04-5.312-3.928-4.882-5.929a1.5,1.5,0,0,1,1.478-1.347,1.008,1.008,0,0,1,.842.281c.206.224.187.748,0,1.609h3.423c.767-2.712-1.141-3.853-3.516-3.853s-5.106.823-5.686,3.535c-.842,4,5.424,3.4,4.863,6.079a1.579,1.579,0,0,1-1.552,1.291c-.692,0-1.029-.206-1.141-.6a3.44,3.44,0,0,1,.15-1.515H47.01" transform="translate(40.676 38.587)" fill="#183a8d"/>
    <path id="Fill-17" d="M53.6,48.264h1.4l-1.627,7.744c-.168.767-.187,2.787,2.824,2.787a13.582,13.582,0,0,0,1.833-.131l.449-2.17a2.3,2.3,0,0,1-.636.056c-1.141,0-.973-.617-.786-1.571l1.422-6.715H60.3l.449-2.17H58.933l.748-3.554-3.834,1.571-.43,2h-1.4l-.449,2.17" transform="translate(46.41 37.046)" fill="#183a8d"/>
    <path id="Fill-19" d="M67.939,51.408c.973-4.04,1.1-7.108-3.591-7.108s-5.724,2.937-6.453,6.378c-.823,3.928-.823,6.7,3.685,6.7a6.284,6.284,0,0,0,3.947-1.216,5.671,5.671,0,0,0,2.02-3.255H64.011c-.224,1.047-.711,2.245-1.964,2.245-1.534,0-1.1-2.245-.786-3.741h6.677Zm-6.266-1.964c.224-1.066.6-2.974,2.207-2.974s1.253,1.74.991,2.974Z" transform="translate(50.03 38.578)" fill="#183a8d"/>
    <path id="Fill-21" d="M70.014,44.553h-3.5L63.86,57.123h3.5l1.833-8.66c.243-1.122.617-1.983,1.74-1.983s1.122.879.9,1.983L70,57.123h3.423l1.833-8.66c.243-1.122.617-1.983,1.74-1.983s1.122.879.9,1.983l-1.833,8.66h3.5l2.132-10.082c.374-1.74-.879-2.731-2.544-2.731a4.644,4.644,0,0,0-3.573,1.59A2.436,2.436,0,0,0,73.1,44.31a3.907,3.907,0,0,0-3.273,1.515h-.056l.262-1.272" transform="translate(55.587 38.587)" fill="#183a8d"/>
    <path id="Fill-23" d="M74.183,53.1c-.935,3.516.917,4.283,3.984,4.283s5.032-1.646,5.5-3.834c.86-4.04-5.312-3.928-4.882-5.929a1.5,1.5,0,0,1,1.478-1.347,1.008,1.008,0,0,1,.842.281c.206.224.187.748,0,1.609h3.423c.767-2.712-1.141-3.853-3.516-3.853-2.263,0-5.106.823-5.686,3.535-.842,4,5.424,3.4,4.863,6.079a1.579,1.579,0,0,1-1.552,1.291c-.692,0-1.029-.206-1.141-.6a3.44,3.44,0,0,1,.15-1.515H74.221" transform="translate(64.361 38.587)" fill="#183a8d"/>
    <path id="Fill-25" d="M24.821,18.563A19.573,19.573,0,0,0,14.5,16.15C6.434,16.15.823,20.864.823,27.672a10.541,10.541,0,0,0,1.59,5.686c1.365,2.245,3.722,3.7,7.519,4.714l4.227,1.122c3.4.917,4.994,2.413,4.994,4.826,0,3.329-2.3,5.088-6.7,5.088-3.834,0-6.921-1.178-10.474-2.993l-.692-.374L0,52.418a28,28,0,0,0,12.139,2.918c9.5,0,15.749-4.975,15.749-12.551,0-5.518-3.4-9.427-9.651-11.092l-4.62-1.234c-3.18-.86-4.227-1.814-4.227-3.76,0-2.525,2.188-4.283,5.331-4.283,2.862,0,5.349.748,8.81,2.787l1.291-6.659" transform="translate(0 14.075)" fill="#183a8d"/>
    <path id="Fill-27" d="M15.52,16.47v6.4h9.334V54.8h7.781V22.867h9.128l1.253-6.4Z" transform="translate(13.509 14.354)" fill="#183a8d"/>
    <path id="Fill-29" d="M41.7,39.36c.823-2.544,1.309-4.358,2.02-7.126.711-2.862,1.814-7.388,1.814-7.388s1.16,5.013,1.534,6.79c.823,3.7,2.076,7.725,2.076,7.725H41.686Zm-.561-22.95L28.63,54.848h8.006l2.693-9.109H50.514l2.693,9.109h8.23L49.429,16.41Z" transform="translate(24.921 14.301)" fill="#183a8d"/>
    <path id="Fill-31" d="M49.03,16.47V54.8h7.631V37.7h10.98V54.8h7.8V16.47h-7.8V31.359H56.661V16.47Z" transform="translate(42.678 14.354)" fill="#183a8d"/>
    <path id="Fill-33" d="M68.14,16.47V54.8H88.285l1.365-6.4H76V16.47Z" transform="translate(59.312 14.354)" fill="#183a8d"/>
    <path id="Fill-35" d="M93.59,16.47H151.5V74.7Z" transform="translate(81.465 14.354)" fill="#ef7300"/>
    <path id="Fill-37" d="M100.553,30.588V67.679h36.923l10.493,10.549H90.06V20.02Z" transform="translate(78.392 17.444)" fill="#183a8d"/>
    <path id="Fill-39" d="M134.862,19.778h-1.178v2.207h1.178a1.106,1.106,0,1,0,0-2.207Zm1.216,5.518-1.44-2.581h-.954V25.3h-.86v-6.3h2.132a1.929,1.929,0,0,1,1.983,1.889,1.754,1.754,0,0,1-1.347,1.74l1.5,2.675Zm-1.384-8.043a4.9,4.9,0,1,0,4.826,4.9,4.862,4.862,0,0,0-4.826-4.9Zm0,10.662a5.742,5.742,0,1,1,5.724-5.742,5.74,5.74,0,0,1-5.724,5.742Z" transform="translate(112.261 14.319)" fill="#183a8d"/>
    <g id="Group-43" transform="translate(0.786 -0.02)">
      <g id="Fill-41-Clipped">
        <g id="Group_151" data-name="Group 151">
          <path id="Fill-41" d="M5.6,1.907h2.88c.449,0,2.263.243,1.721,2.75A3.318,3.318,0,0,1,6.723,7.443H4.441L5.62,1.888ZM2.515,16.5,4.049,9.257H6.78A5.43,5.43,0,0,0,12.3,4.75C13.12.9,10.932.092,8.743.092H3.9L.42,16.5H2.5Zm16.61-5.7c-.6,3.7-2.151,4.414-3.292,4.414-1.253,0-1.571-.991-1.347-2.114.505-2.432,2.862-2.282,4.62-2.3h0Zm-1.16,5.7H20a17.632,17.632,0,0,1,.355-2.731l1.178-5.518c.411-1.927-.037-3.46-2.974-3.46-2.413,0-3.965.879-4.6,3.46h2.02A2.173,2.173,0,0,1,18.208,6.19c1.983,0,1.627,1.665,1.253,3.18-2.581-.075-6.023.094-6.752,3.573-.468,2.207-.094,3.778,2.319,3.778A3.573,3.573,0,0,0,18.3,14.831h.056L18,16.5ZM27.3,5.011H25.447L23.015,16.5h1.852l1.44-6.771c.318-1.552,1.178-3.1,3.236-3.1a3.678,3.678,0,0,1,.486.037,4.369,4.369,0,0,1,.486.075l.411-1.927c-1.814,0-2.806.206-3.947,1.964h-.037L27.3,5.049Zm4.844,0-.3,1.4h1.87l-1.721,8.155c-.281,1.328.355,2.057,2.132,2.057.617,0,1.253-.131,1.87-.187L36.3,15a8.6,8.6,0,0,1-.86.094c-1.7,0-1.5-.935-1.347-1.665L35.566,6.4h2.488l.3-1.4H35.865L36.5,1.944l-2.039.842-.468,2.207h-1.87ZM46.19,16.5l1.683-7.949c.486-2.282.187-3.76-2.263-3.76a3.825,3.825,0,0,0-3.423,1.7h-.094l.318-1.478H40.448c-.094.786-.224,1.59-.393,2.394L38.128,16.5H39.98l1.44-6.79c.337-1.571,1.01-3.386,3.049-3.386,1.59,0,1.8,1.01,1.534,2.226L44.319,16.5h1.852Zm6.453-6.547c.692-3.18,1.8-3.76,2.974-3.76,1.365,0,2.188.411,1.5,3.76H52.662Zm6.135,1.4.206-.973c.8-3.8.374-5.593-2.9-5.593-3.965,0-4.938,2.768-5.649,6.135-1.066,5.069.692,5.8,3.124,5.8a4.442,4.442,0,0,0,4.77-3.7H56.29a2.679,2.679,0,0,1-2.45,2.188c-1.44,0-2.17-.636-1.5-3.834h6.416Zm6.341-6.341H63.267L60.835,16.5h1.852l1.422-6.771c.318-1.552,1.178-3.1,3.236-3.1a3.678,3.678,0,0,1,.486.037,4.368,4.368,0,0,1,.486.075l.411-1.927c-1.814,0-2.806.206-3.947,1.964h-.056L65.1,5.049ZM77.613,15.205c-1.927,0-2.114-1.347-1.328-5.069.673-3.142,1.777-3.816,3.2-3.816s2.245.692,1.59,3.816c-.786,3.722-1.552,5.069-3.479,5.069h0ZM77.3,16.72c2.413,0,4.489-.729,5.574-5.8.711-3.367.917-6.135-3.049-6.135s-4.938,2.768-5.649,6.135c-1.066,5.069.692,5.8,3.124,5.8h0ZM86.086,5.011l-.3,1.4h1.758L85.413,16.5h1.852L89.4,6.414h2.3l.3-1.4H89.7l.411-1.964c.206-.935.711-1.777,2.656-1.646L93.044.055a5.253,5.253,0,0,0-.86-.075c-1.646,0-3.367.449-3.872,2.768l-.468,2.226H86.086Z" transform="translate(-0.42 0.02)" fill="#183a8d"/>
        </g>
      </g>
    </g>
  </g>
</svg>
