<svg xmlns="http://www.w3.org/2000/svg" width="349.708" height="97.239" viewBox="0 0 349.708 97.239">
  <g id="Layer_1-2" transform="translate(-0.01)">
    <path id="Fill-1" d="M8.947,50.958c4.841,0,7.482-2.149,7.482-8.776h-5.1c-.078,1.968.026,5.074-2.356,5.074-2.925,0-3.288-2.744-3.288-9.139s.388-9.139,3.288-9.139c1.553,0,2.123,1.243,2.123,4.556H16.17c.207-5.333-1.916-8.284-7.2-8.284C.43,25.25.43,31.515.43,38.117s0,12.867,8.543,12.867" transform="translate(0.667 40.12)" fill="#ef7300"/>
    <path id="Fill-3" d="M8.05,28.522v17.4h4.841V36.444c0-1.735.078-4.194,4.323-3.935V28.16c-1.968,0-3.6.6-4.479,2.589h-.078V28.5H8.076" transform="translate(12.775 44.743)" fill="#ef7300"/>
    <path id="Fill-5" d="M26.158,33.985c0-3.184-.777-5.825-6.912-5.825A7.459,7.459,0,0,0,14.715,29.3c-1.139.8-1.786,2.123-1.786,4.246h4.738c0-1.372.129-2.641,1.812-2.641s1.968,1.061,1.968,2.537v1.346c-4.5-.078-8.906.181-8.906,5.929,0,3.029,1.217,5.54,4.582,5.54a4.78,4.78,0,0,0,4.531-2.667h.078l.207,2.3h4.479c-.1-1.061-.233-2.175-.233-3.236v-8.7ZM21.42,37.506c0,1.89.44,5.747-2.408,5.747-1.579,0-1.786-1.527-1.786-2.77,0-3.107,1.786-2.9,4.194-3h0Z" transform="translate(19.909 44.743)" fill="#ef7300"/>
    <path id="Fill-7" d="M24.451,28.507H19.61V45.9h4.841V33.917c0-1.553.285-2.744,1.812-2.744s1.812,1.217,1.812,2.744V45.9h4.841V31.95c0-2.408-2.019-3.78-4.323-3.78a4.929,4.929,0,0,0-2.356.492,3.941,3.941,0,0,0-1.709,1.631h-.078v-1.76" transform="translate(31.142 44.759)" fill="#ef7300"/>
    <path id="Fill-9" d="M40.345,38c.181-5.592-.544-9.838-7.068-9.838s-7.068,4.065-7.068,8.828c0,5.437.828,9.268,7.068,9.268a7.228,7.228,0,0,0,5.1-1.683,6.108,6.108,0,0,0,1.838-4.5H35.323c0,1.45-.337,3.107-2.071,3.107-2.123,0-2.2-3.107-2.2-5.178h9.268Zm-9.268-2.718c0-1.476-.026-4.116,2.2-4.116S35.5,33.571,35.5,35.279Z" transform="translate(41.629 44.743)" fill="#ef7300"/>
    <path id="Fill-11" d="M49.856,43.776c1.657-7.818-8.854-7.4-7.87-12.142a3.1,3.1,0,0,1,3.236-2.667c2.1,0,1.993,1.89,1.605,3.754h5.048c1.45-5.2-.57-7.482-5.618-7.482-6.317,0-8.828,3.107-9.631,6.99-1.553,7.4,8.8,7.689,7.844,12.168a3.194,3.194,0,0,1-3.21,2.822c-2.848,0-2.537-1.993-2.019-4.375H34.064c-1.191,4.3-.777,8.1,5.618,8.1,3.935,0,8.8-.751,10.174-7.2" transform="translate(53.27 40.104)" fill="#183a8d"/>
    <path id="Fill-13" d="M40.56,52.273h5.074L57.388,28.3h-4.66L47.55,40.52h-.078L47.6,28.3H42.786l.984,17.527Z" transform="translate(64.43 44.966)" fill="#183a8d"/>
    <path id="Fill-15" d="M47.066,40.328c-1.294,4.867,1.294,5.929,5.514,5.929s6.964-2.278,7.611-5.307c1.191-5.592-7.352-5.437-6.757-8.207a2.08,2.08,0,0,1,2.045-1.864,1.4,1.4,0,0,1,1.165.388c.285.311.259,1.036,0,2.226h4.738c1.061-3.754-1.579-5.333-4.867-5.333s-7.068,1.139-7.87,4.893c-1.165,5.54,7.508,4.712,6.731,8.414a2.186,2.186,0,0,1-2.149,1.786c-.958,0-1.424-.285-1.579-.828a4.761,4.761,0,0,1,.207-2.1H47.117" transform="translate(74.234 44.743)" fill="#183a8d"/>
    <path id="Fill-17" d="M53.712,34.322h1.942L53.4,45.04C53.168,46.1,53.142,48.9,57.31,48.9a18.8,18.8,0,0,0,2.537-.181l.621-3a3.188,3.188,0,0,1-.88.078c-1.579,0-1.346-.854-1.087-2.175l1.968-9.294H62.98l.621-3H61.09L62.126,26.4l-5.307,2.175-.6,2.77H54.281l-.621,3" transform="translate(84.701 41.947)" fill="#183a8d"/>
    <path id="Fill-19" d="M71.958,38c1.346-5.592,1.527-9.838-4.971-9.838s-7.922,4.065-8.932,8.828c-1.139,5.437-1.139,9.268,5.1,9.268a8.7,8.7,0,0,0,5.463-1.683,7.849,7.849,0,0,0,2.8-4.5H66.522c-.311,1.45-.984,3.107-2.718,3.107-2.123,0-1.527-3.107-1.087-5.178h9.242Zm-8.673-2.718c.311-1.476.828-4.116,3.055-4.116s1.735,2.408,1.372,4.116Z" transform="translate(91.307 44.743)" fill="#183a8d"/>
    <path id="Fill-21" d="M72.377,28.507H67.536L63.86,45.9H68.7l2.537-11.987c.337-1.553.854-2.744,2.408-2.744s1.553,1.217,1.243,2.744L72.352,45.9h4.738l2.537-11.987c.337-1.553.854-2.744,2.408-2.744s1.553,1.217,1.243,2.744L80.74,45.9h4.841L88.532,31.95c.518-2.408-1.217-3.78-3.521-3.78a6.427,6.427,0,0,0-4.945,2.2,3.372,3.372,0,0,0-3.417-2.2,5.407,5.407,0,0,0-4.531,2.1h-.078l.362-1.76" transform="translate(101.451 44.759)" fill="#183a8d"/>
    <path id="Fill-23" d="M74.277,40.328c-1.294,4.867,1.269,5.929,5.514,5.929s6.964-2.278,7.611-5.307c1.191-5.592-7.352-5.437-6.757-8.207a2.08,2.08,0,0,1,2.045-1.864,1.4,1.4,0,0,1,1.165.388c.285.311.259,1.036,0,2.226h4.738c1.061-3.754-1.579-5.333-4.867-5.333-3.133,0-7.068,1.139-7.87,4.893-1.165,5.54,7.508,4.712,6.731,8.414a2.186,2.186,0,0,1-2.149,1.786c-.958,0-1.424-.285-1.579-.828a4.761,4.761,0,0,1,.207-2.1H74.329" transform="translate(117.467 44.743)" fill="#183a8d"/>
    <path id="Fill-25" d="M34.339,3.34A27.091,27.091,0,0,0,20.048,0C8.89,0,1.149,6.524,1.149,15.948a14.589,14.589,0,0,0,2.2,7.87c1.89,3.107,5.152,5.126,10.407,6.524L19.608,31.9c4.712,1.269,6.912,3.34,6.912,6.679,0,4.608-3.184,7.042-9.268,7.042-5.307,0-9.579-1.631-14.5-4.142L1.8,40.956.01,50.2a38.756,38.756,0,0,0,16.8,4.039c13.152,0,21.8-6.886,21.8-17.371,0-7.637-4.712-13.048-13.359-15.352l-6.395-1.709c-4.4-1.191-5.851-2.511-5.851-5.2,0-3.5,3.029-5.929,7.378-5.929,3.961,0,7.4,1.036,12.194,3.857l1.786-9.216" transform="translate(0)" fill="#183a8d"/>
    <path id="Fill-27" d="M15.52.32V9.174H28.439V53.392h10.77V9.174H51.842L53.577.32Z" transform="translate(24.644 0.508)" fill="#183a8d"/>
    <path id="Fill-29" d="M46.726,32.026c1.139-3.521,1.812-6.032,2.8-9.864.984-3.961,2.511-10.226,2.511-10.226s1.605,6.938,2.123,9.4C55.3,26.46,57.03,32.026,57.03,32.026H46.7ZM45.95.26l-17.32,53.2H39.71l3.728-12.608H58.92l3.728,12.608H74.039L57.419.26H45.95Z" transform="translate(45.474 0.413)" fill="#183a8d"/>
    <path id="Fill-31" d="M49.03.32V53.392H59.593V29.73h15.2V53.392h10.8V.32H74.79V20.928h-15.2V.32Z" transform="translate(77.888 0.508)" fill="#183a8d"/>
    <path id="Fill-33" d="M68.14.32V53.392H96.022l1.89-8.854h-18.9V.32Z" transform="translate(108.251 0.508)" fill="#183a8d"/>
    <path id="Fill-35" d="M93.59.33h80.152V80.9Z" transform="translate(148.689 0.524)" fill="#ef7300"/>
    <path id="Fill-37" d="M104.584,18.5V69.835h51.1l14.524,14.627H90.06V3.87Z" transform="translate(143.08 6.149)" fill="#183a8d"/>
    <path id="Fill-39" d="M137.125,4.914h-1.631V7.969h1.631a1.531,1.531,0,1,0,0-3.055h0Zm1.683,7.637-1.993-3.573h-1.32v3.573H134.3v-8.7h2.951A2.67,2.67,0,0,1,140,6.467a2.428,2.428,0,0,1-1.864,2.408l2.071,3.7h-1.4ZM136.892,1.419A6.73,6.73,0,0,0,130.239,8.2a6.667,6.667,0,1,0,13.333,0,6.752,6.752,0,0,0-6.679-6.783Zm0,14.757a7.948,7.948,0,1,1,7.922-7.948,7.944,7.944,0,0,1-7.922,7.948Z" transform="translate(204.904 0.445)" fill="#183a8d"/>
  </g>
</svg>
